<svg width="156" height="167" viewBox="0 0 156 167" fill="none" xmlns="http://www.w3.org/2000/svg">
<path d="M2.09454 105.084L0 130.581C7.24138 140.792 16.7271 149.318 27.7678 155.542C38.8085 161.766 51.1267 165.53 63.8274 166.561C93.4592 168.995 120.782 156.538 137.983 135.609L140.919 99.8713C132.9 132.976 100.945 156.221 64.92 153.261C35.0828 150.811 10.9351 131.085 2.09454 105.084ZM132.457 47.5104L133.397 36.0588C133.585 33.5314 134.217 31.0562 135.268 28.7407C120.536 12.3162 99.7957 2.11033 77.485 0.306708C57.5242 -1.36191 37.6267 3.81481 21.2562 14.936L21.2571 15.3445L21.2491 15.5245L19.7741 33.48C27.1512 26.3847 36.0329 20.934 45.8073 17.5031C55.5816 14.0724 66.0164 12.7431 76.3924 13.6072C100.473 15.5853 120.843 28.8143 132.457 47.5104Z" fill="#F6A708"/>
<path d="M77.1583 119.035C80.1978 118.641 83.3529 118.2 86.6235 117.713L88.8282 133.063C83.2764 134.888 78.2067 136.09 73.6127 136.688L73.6094 136.688C68.5354 137.356 64.4213 137.681 61.2426 137.681C57.4004 137.681 54.1248 136.927 51.3586 135.484C48.4958 133.99 46.0074 132.001 43.8845 129.507C41.8008 126.979 40.0498 124.055 38.6393 120.724C37.2046 117.266 36.0612 113.641 35.2105 109.846C34.3537 106.023 33.7272 102.167 33.3311 98.2791C32.9993 94.2929 32.8345 90.5496 32.8345 87.0477C32.8345 78.262 33.5334 70.2056 34.921 62.8707L34.9216 62.8675C36.3108 55.4593 38.3164 49.1425 40.9117 43.8869C43.4984 38.649 46.6519 34.67 50.3326 31.8626L50.341 31.8562L50.3494 31.8496C53.9707 29.0262 58.05 27.6253 62.6569 27.6253C66.4811 27.6253 69.9245 28.5762 73.0338 30.4661C76.1148 32.3388 78.8238 35.2554 81.1186 39.3348C83.4061 43.4017 85.2007 48.6692 86.4538 55.1981L86.456 55.2096L86.4583 55.2211C87.7711 61.6531 88.4385 69.3586 88.4385 78.3596C88.4385 80.8838 88.372 83.4426 88.239 86.0362L88.2377 86.0617L88.237 86.0873C88.1835 88.1728 88.0651 90.3268 87.8811 92.5494L53.7056 97.087L51.7705 97.3439L51.9804 99.2846C52.2583 101.855 52.6764 104.298 53.2375 106.612L53.2442 106.64L53.2516 106.667C53.8916 109.014 54.7187 111.146 55.7436 113.05L55.7657 113.091L55.7897 113.131C56.9113 115 58.2552 116.554 59.8405 117.743L59.8406 117.743C61.5872 119.052 63.6767 119.658 65.9907 119.658C69.7018 119.658 73.4125 119.452 77.1221 119.039L77.1402 119.037L77.1583 119.035ZM51.3628 81.8955V84.3035L53.7299 83.8615L70.4997 80.7298L72.1326 80.4248V78.7637V74.9248C72.1326 69.1384 71.6944 64.5132 70.7454 61.1523C69.8519 57.9229 68.8395 55.3483 67.6432 53.5935L67.6392 53.5876L67.6351 53.5817C66.2293 51.5511 64.4341 50.1089 62.1914 49.719L61.9185 49.6716L61.643 49.7001C59.1107 49.962 57.0443 51.179 55.5695 53.2609L55.5694 53.2611C54.2364 55.1432 53.2759 57.4881 52.6289 60.2195L52.6243 60.2386L52.6202 60.2578C52.0524 62.8837 51.705 65.8286 51.5666 69.0814C51.4306 72.2757 51.3628 75.5033 51.3628 78.7637V81.8955ZM102.339 58.8971L153.801 60.3031V74.9526L102.339 75.1401V58.8971Z" fill="#4F4848" stroke="white" stroke-width="4"/>
</svg>
